<?xml version="1.0" encoding="iso-8859-1"?>
<!-- Generator: Adobe Illustrator 19.0.0, SVG Export Plug-In . SVG Version: 6.00 Build 0)  -->
<svg version="1.1" id="Capa_1" xmlns="http://www.w3.org/2000/svg" xmlns:xlink="http://www.w3.org/1999/xlink" x="0px" y="0px"
	 viewBox="0 0 512 512" style="enable-background:new 0 0 512 512;" xml:space="preserve">
<path style="fill:#F7E3AA;" d="M375.182,85.894l-46.955,220.864c-0.41,1.95-1.58,3.65-3.25,4.74c-1.22,0.79-2.64,1.21-4.08,1.21
	c-0.52,0-1.04-0.06-1.56-0.17l-16.332-3.47l-18.782-3.99c-4.05-0.86-6.641-4.851-5.781-8.901l46.955-220.874
	c0.48-2.29,2.02-4.23,4.15-5.221c2.12-1,4.59-0.95,6.671,0.14c4.751,2.5,9.841,4.33,15.112,5.451c0.46,0.1,0.92,0.19,1.38,0.28
	c4.841,0.91,9.761,1.21,14.652,0.89c2.34-0.15,4.62,0.8,6.151,2.58C375.052,81.204,375.672,83.594,375.182,85.894z"/>
<path style="fill:#E0C48C;" d="M375.182,85.894l-46.955,220.864c-0.41,1.95-1.58,3.65-3.25,4.74c-1.22,0.79-2.64,1.21-4.08,1.21
	c-0.52,0-1.04-0.06-1.56-0.17l-16.332-3.47L352.71,75.953c4.841,0.91,9.761,1.21,14.652,0.89c2.34-0.15,4.62,0.8,6.151,2.58
	C375.052,81.204,375.672,83.594,375.182,85.894z"/>
<path style="fill:#B4CCCB;" d="M374.771,323.665l-145.716-30.972c-4.053-0.861-8.036,1.725-8.897,5.777l-14.927,70.225
	c-6.623,31.155,1.38,60.536,23.142,84.967c16.16,18.141,34.141,27.097,34.899,27.469c1.031,0.506,2.163,0.769,3.309,0.769
	c0.095,0,0.19-0.002,0.285-0.005c0.843-0.032,20.913-0.9,43.054-10.899c29.817-13.466,49.078-37.053,55.7-68.208l14.927-70.225
	C381.41,328.509,378.823,324.526,374.771,323.665z"/>
<path style="fill:#9AB2B0;" d="M374.771,323.665l-22.683-4.822c1.338,1.691,1.941,3.942,1.458,6.217l-14.927,70.225
	c-6.623,31.155-25.883,54.741-55.7,68.208c-12.557,5.672-24.444,8.404-32.539,9.714c7.248,5.114,12.492,7.726,12.894,7.923
	c1.031,0.506,2.163,0.769,3.309,0.769c0.095,0,0.19-0.002,0.285-0.005c0.843-0.032,20.913-0.9,43.054-10.899
	c29.817-13.466,49.078-37.053,55.7-68.208l14.927-70.225C381.41,328.509,378.823,324.526,374.771,323.665z"/>
<path style="fill:#9393A3;" d="M363.642,91.978c-5.119,0-10.284-0.533-15.428-1.626c-27-5.739-48.358-25.853-55.739-52.492
	c-0.7-2.525-0.031-5.234,1.765-7.143c1.796-1.909,4.459-2.741,7.023-2.196l114.992,24.443c2.563,0.545,4.658,2.388,5.522,4.863
	c0.864,2.475,0.374,5.221-1.292,7.244C406.255,82.339,385.394,91.978,363.642,91.978z M311.845,46.106
	c8.074,15.019,22.355,25.93,39.487,29.571c17.134,3.642,34.618-0.517,48.102-10.953L311.845,46.106z"/>
<path style="fill:#D1E5E3;" d="M271.234,294.646l-3.541,27.932c-2,15.779,8.426,30.457,23.984,33.765l0,0
	c15.558,3.307,31.053-5.862,35.643-21.09l8.126-26.958L271.234,294.646z"/>
<path style="fill:#C99363;" d="M376.623,452.9c-0.714,0-1.426,0.015-2.135,0.043c-15.406-50.367-61.835-84.999-115.107-84.999
	c-48.512,0-92.438,29.452-111.063,73.86c-0.608-0.018-1.218-0.026-1.828-0.026c-34.58,0-62.713,28.137-62.713,62.722
	c0,4.142,3.358,7.501,7.501,7.501h329.444c4.142,0,7.501-3.358,7.501-7.501C428.223,476.047,405.075,452.9,376.623,452.9z"/>
<path style="fill:#BA7F4F;" d="M376.623,452.9c-0.714,0-1.426,0.015-2.135,0.043c-15.406-50.367-61.835-84.999-115.107-84.999
	c-0.154,0-0.306,0.008-0.46,0.009c40.696,0.186,76.126,34.759,87.903,84.99c0.544-0.029,1.09-0.043,1.637-0.043
	c21.809,0,39.552,23.147,39.552,51.6c0,4.142-2.574,7.501-5.75,7.501h38.458c4.142,0,7.501-3.358,7.501-7.501
	C428.223,476.047,405.075,452.9,376.623,452.9z"/>
<path style="fill:#FF5F5F;" d="M428.058,33.508l-6.031,28.353c-0.41,1.94-1.58,3.64-3.25,4.731c-1.22,0.79-2.64,1.21-4.08,1.21
	c-0.52,0-1.04-0.06-1.56-0.17l-21.202-4.51l-93.79-19.932c-1.95-0.41-3.65-1.58-4.73-3.25c-1.08-1.67-1.46-3.7-1.05-5.641
	l6.031-28.353c0.86-4.05,4.841-6.641,8.891-5.781l93.79,19.932l21.202,4.51C426.328,25.468,428.918,29.458,428.058,33.508z"/>
<path style="fill:#E24B4B;" d="M428.058,33.508l-6.031,28.353c-0.41,1.94-1.58,3.64-3.25,4.731c-1.22,0.79-2.64,1.21-4.08,1.21
	c-0.52,0-1.04-0.06-1.56-0.17l-21.202-4.51l9.141-43.025l21.202,4.51C426.328,25.468,428.918,29.458,428.058,33.508z"/>
<g>
</g>
<g>
</g>
<g>
</g>
<g>
</g>
<g>
</g>
<g>
</g>
<g>
</g>
<g>
</g>
<g>
</g>
<g>
</g>
<g>
</g>
<g>
</g>
<g>
</g>
<g>
</g>
<g>
</g>
</svg>
