<svg height="512" viewBox="0 0 64 64" width="512" xmlns="http://www.w3.org/2000/svg"><g id="Twotone"><g id="Stroke_copy_3" data-name="Stroke copy 3"><g><circle cx="13" cy="6" fill="#a8dba8" r="3"/><path d="m61 61h-58v-10l7-2 10-1 12 2 10-2 11 3 8-2z" fill="#a8dba8"/><g fill="#cff09e"><path d="m36 23h-1.651a5.971 5.971 0 0 0 -.349 2h2a6 6 0 0 0 6-6h-.349a6 6 0 0 1 -5.651 4z"/><path d="m36 32h-1.651a5.971 5.971 0 0 0 -.349 2h2a6 6 0 0 0 6-6h-.349a6 6 0 0 1 -5.651 4z"/><path d="m36 41h-1.651a5.971 5.971 0 0 0 -.349 2h2a6 6 0 0 0 6-6h-.349a6 6 0 0 1 -5.651 4z"/><path d="m32 23a3.982 3.982 0 0 1 -3.445-2h-.555a4 4 0 0 0 4 4h2a3.955 3.955 0 0 0 -.555-2z"/><path d="m32 32h1.651a5.971 5.971 0 0 1 .349 2h-2a6 6 0 0 1 -6-6h.349a6 6 0 0 0 5.651 4z"/><path d="m32 41h1.651a5.971 5.971 0 0 1 .349 2h-2a6 6 0 0 1 -6-6h.349a6 6 0 0 0 5.651 4z"/><path d="m55 42h-1.651a5.971 5.971 0 0 0 -.349 2h2a6 6 0 0 0 6-6h-.349a6 6 0 0 1 -5.651 4z"/><path d="m51 42a3.982 3.982 0 0 1 -3.445-2h-.555a4 4 0 0 0 4 4h2a3.955 3.955 0 0 0 -.555-2z"/><path d="m16 39h-1.651a5.971 5.971 0 0 0 -.349 2h2a6 6 0 0 0 6-6h-.349a6 6 0 0 1 -5.651 4z"/><path d="m12 39a3.982 3.982 0 0 1 -3.445-2h-.555a4 4 0 0 0 4 4h2a3.955 3.955 0 0 0 -.555-2z"/><path d="m51 33a3.982 3.982 0 0 1 -3.445-2h-.555a4 4 0 0 0 4 4h2a3.955 3.955 0 0 0 -.555-2z"/><path d="m55 33a3.982 3.982 0 0 0 3.445-2h.555a4 4 0 0 1 -4 4h-2a3.955 3.955 0 0 1 .555-2z"/><path d="m16 30a3.982 3.982 0 0 0 3.445-2h.555a4 4 0 0 1 -4 4h-2a3.955 3.955 0 0 1 .555-2z"/><path d="m4.324 25.876c-.014-.006-.025-.017-.038-.023l-.879 1.8a4 4 0 0 0 1.837 5.347l.879-1.8c.036-.074.052-.151.083-.226a3.987 3.987 0 0 1 -1.882-5.098z"/></g></g></g><g id="Stroke_Close_copy" data-name="Stroke Close copy"><g fill="#3b8686"><path d="m55 45a7.009 7.009 0 0 0 7-7v-2a1 1 0 0 0 -2 0v1h-1a6.973 6.973 0 0 0 -5 2.111v-3.111h1a5.006 5.006 0 0 0 5-5v-2a1 1 0 0 0 -2 0v1h-1a4.948 4.948 0 0 0 -3 1.026v-7.436a5.179 5.179 0 0 0 -2.909-4.662 3.631 3.631 0 0 0 -3.165 0 3.955 3.955 0 0 0 -2.143 2.641l-.757 3.206a1 1 0 1 0 1.948.458l.755-3.2a1.942 1.942 0 0 1 1.051-1.293 1.654 1.654 0 0 1 1.456 0 3.174 3.174 0 0 1 1.764 2.85v7.436a4.948 4.948 0 0 0 -3-1.026h-1v-1a1 1 0 0 0 -2 0v2a5.006 5.006 0 0 0 5 5h1v4.026a4.948 4.948 0 0 0 -3-1.026h-1v-1a1 1 0 0 0 -2 0v2a5.006 5.006 0 0 0 5 5h1v4.691l-9.737-2.656a.989.989 0 0 0 -.459-.015l-6.804 1.36v-4.38h1a7.009 7.009 0 0 0 7-7v-2a1 1 0 0 0 -2 0v1h-1a6.973 6.973 0 0 0 -5 2.111v-3.111h1a7.009 7.009 0 0 0 7-7v-2a1 1 0 0 0 -2 0v1h-1a6.973 6.973 0 0 0 -5 2.111v-3.111h1a7.009 7.009 0 0 0 7-7v-2a1 1 0 0 0 -2 0v1h-1a6.973 6.973 0 0 0 -5 2.111v-5.111a1 1 0 0 0 -2 0v6.026a4.948 4.948 0 0 0 -3-1.026h-1v-1a1 1 0 0 0 -2 0v2a5.006 5.006 0 0 0 5 5h1v3.111a6.973 6.973 0 0 0 -5-2.111h-1v-1a1 1 0 0 0 -2 0v2a7.009 7.009 0 0 0 7 7h1v3.111a6.973 6.973 0 0 0 -5-2.111h-1v-1a1 1 0 0 0 -2 0v2a7.009 7.009 0 0 0 7 7h1v4.78l-1.017.2-11.819-1.966a1.015 1.015 0 0 0 -.264-.009l-4.9.495v-5.5h1a7.009 7.009 0 0 0 7-7v-2a1 1 0 0 0 -2 0v1h-1a6.975 6.975 0 0 0 -5.153 2.279q-.117-1.645-.339-3.279h1.492a5.006 5.006 0 0 0 5-5v-2a1 1 0 0 0 -2 0v1h-1a5 5 0 0 0 -4.142 2.2c-.1-.455-.174-.913-.28-1.365l-1.356-5.765a4.783 4.783 0 0 0 -9.41.568 1.013 1.013 0 0 0 0 .156l.159 3.478-.457.935a5.006 5.006 0 0 0 2.3 6.687 1 1 0 0 0 .763.048 1 1 0 0 0 .575-.507l.878-1.8a5 5 0 0 0 -2.117-6.565l-.1-2.28a2.782 2.782 0 0 1 5.465-.257l1.353 5.767a51.7 51.7 0 0 1 1.269 8.641 4.955 4.955 0 0 0 -2.9-.941h-1v-1a1 1 0 0 0 -2 0v2a5.006 5.006 0 0 0 5 5h1v5.7l-3.079.3h-.019a1.009 1.009 0 0 0 -.174.033l-7 2a1 1 0 0 0 .272 1.967 1.036 1.036 0 0 0 .275-.038l5.178-1.48-1.4 4.2-1 3a1 1 0 1 0 1.9.632l.586-1.758 1.911 1.274a1 1 0 1 0 1.11-1.664l-2.37-1.574 1.554-4.661 8.055-.806-.75 4.5-1.881 2.821a1 1 0 0 0 1 1.541l5.493-.915 1.636 1.636a1 1 0 0 0 1.414-1.414l-1.49-1.49 1.679-3.357a1 1 0 0 0 -1.79-.894l-1.777 3.547-3.221.536.72-1.079a1 1 0 0 0 .154-.391l.836-5.014 10.511 1.748 1.4 2.8-3.333 2.5a1 1 0 1 0 1.2 1.6l4-3c.029-.022.044-.055.071-.08a.974.974 0 0 0 .136-.152 1.084 1.084 0 0 0 .154-.341 1.087 1.087 0 0 0 .024-.188.977.977 0 0 0 -.009-.187.937.937 0 0 0 -.053-.193.973.973 0 0 0 -.028-.106l-1.415-2.829 7.556-1.511a.95.95 0 0 0 .107.3l2.269 3.787-3.612.72h-.006c-.011 0-.02.01-.031.013a.975.975 0 0 0 -.348.157c-.006 0-.013 0-.019.008l-4 3a1 1 0 0 0 -.354 1.1l.939 3a1 1 0 0 0 1.909-.6l-.728-2.325 2.476-1.857 2.463 4.928a1 1 0 0 0 1.79-.894l-2.411-4.826 3.72-.744c.009 0 .015-.007.023-.009a.976.976 0 0 0 .3-.114c.008-.005.012-.013.021-.019a1.018 1.018 0 0 0 .161-.147 1 1 0 0 0 .121-.122 1.072 1.072 0 0 0 .074-.169.939.939 0 0 0 .075-.18.9.9 0 0 0 .009-.165.987.987 0 0 0 0-.224.261.261 0 0 0 0-.028 1.014 1.014 0 0 0 -.067-.163.91.91 0 0 0 -.056-.156l-2.436-4.061 7.975 2.177-1.23 1.845a1 1 0 0 0 .277 1.387l1.418.945-3.234 1.294a1 1 0 0 0 -.161 1.776l4.77 3a1 1 0 0 0 1.06-1.694l-3.1-1.953 3-1.2h2.8a1 1 0 0 0 0-2h-2.7l-1.916-1.277 1.231-1.847 7.624-1.906a1 1 0 1 0 -.484-1.94l-6.755 1.69v-4.72zm4-6h.9a5.008 5.008 0 0 1 -4.9 4h-.9a5.008 5.008 0 0 1 4.9-4zm-19-1h.9a5.008 5.008 0 0 1 -4.9 4h-.9a5.008 5.008 0 0 1 4.9-4zm0-9h.9a5.008 5.008 0 0 1 -4.9 4h-.9a5.008 5.008 0 0 1 4.9-4zm0-9h.9a5.008 5.008 0 0 1 -4.9 4h-.9a5.008 5.008 0 0 1 4.9-4zm-8 13a5.008 5.008 0 0 1 -4.9-4h.9a5.008 5.008 0 0 1 4.9 4zm0 9a5.008 5.008 0 0 1 -4.9-4h.9a5.008 5.008 0 0 1 4.9 4zm0-18a3.006 3.006 0 0 1 -2.829-2h.829a3.006 3.006 0 0 1 2.829 2zm-12 12h.9a5.008 5.008 0 0 1 -4.9 4h-.9a5.008 5.008 0 0 1 4.9-4zm-2-7h.829a3.006 3.006 0 0 1 -2.829 2h-.829a3.006 3.006 0 0 1 2.829-2zm-12.776 1.764-.364.744a3 3 0 0 1 -.554-3.419l.086-.177a.973.973 0 0 0 .43-.375 2.93 2.93 0 0 1 .4 3.227zm6.776 9.236a3.006 3.006 0 0 1 -2.829-2h.829a3.006 3.006 0 0 1 2.829 2zm45-8h.829a3.006 3.006 0 0 1 -2.829 2h-.829a3.006 3.006 0 0 1 2.829-2zm-6 2a3.006 3.006 0 0 1 -2.829-2h.829a3.006 3.006 0 0 1 2.829 2zm0 9a3.006 3.006 0 0 1 -2.829-2h.829a3.006 3.006 0 0 1 2.829 2z"/><path d="m13 10a4 4 0 1 0 -4-4 4 4 0 0 0 4 4zm0-6a2 2 0 1 1 -2 2 2 2 0 0 1 2-2z"/><path d="m11 13v3a1 1 0 0 0 2 0v-3a1 1 0 0 0 -2 0z"/><path d="m15.629 12.071a1 1 0 0 0 -.558 1.3l2 5a1 1 0 0 0 .929.629.986.986 0 0 0 .371-.071 1 1 0 0 0 .558-1.3l-2-5a1 1 0 0 0 -1.3-.558z"/><path d="m19.105 6.553a1 1 0 0 0 .448 1.347l8 4a1 1 0 0 0 .894-1.79l-8-4a1 1 0 0 0 -1.342.443z"/><path d="m20 4h6a1 1 0 0 0 0-2h-6a1 1 0 0 0 0 2z"/><path d="m23.293 16.707a1 1 0 0 0 1.414-1.414l-5-5a1 1 0 0 0 -1.414 1.414z"/><path d="m7.832 8.445a1 1 0 0 0 -1.387-.277l-3 2a1 1 0 0 0 1.11 1.664l3-2a1 1 0 0 0 .277-1.387z"/><path d="m4 5h3a1 1 0 0 0 0-2h-3a1 1 0 0 0 0 2z"/><path d="m7.293 12.293-2 2a1 1 0 1 0 1.414 1.414l2-2a1 1 0 0 0 -1.414-1.414z"/></g></g></g></svg>